# Blender v2.77 (sub 0) OBJ File: 'coin.blend'
# www.blender.org
o Cylinder
v 0.000000 0.250000 -0.050000
v 0.000000 0.250000 0.050000
v 0.176777 0.176777 -0.050000
v 0.176777 0.176777 0.050000
v 0.250000 -0.000000 -0.050000
v 0.250000 -0.000000 0.050000
v 0.176777 -0.176777 -0.050000
v 0.176777 -0.176777 0.050000
v -0.000000 -0.250000 -0.050000
v -0.000000 -0.250000 0.050000
v -0.176777 -0.176777 -0.050000
v -0.176777 -0.176777 0.050000
v -0.250000 -0.000000 -0.050000
v -0.250000 0.000000 0.050000
v -0.176777 0.176777 -0.050000
v -0.176777 0.176777 0.050000
vt 0.6063 0.3536
vt 0.7375 0.1464
vt 0.7375 0.3536
vt 0.6063 0.1464
vt 0.7375 0.0000
vt 0.8688 0.3536
vt 1.0000 0.1464
vt 1.0000 0.3536
vt 0.8688 0.0000
vt 1.0000 0.0000
vt 0.7375 0.1464
vt 0.7375 0.0000
vt 0.8688 0.1464
vt 0.7375 0.3536
vt 0.6063 0.1464
vt 0.4287 0.5000
vt 0.1776 0.0000
vt 0.8688 0.3536
vt 0.7375 0.5000
vt 0.6063 0.5000
vt 0.1776 0.5000
vt 0.6063 0.6464
vt 0.4287 1.0000
vt 0.6063 0.0000
vt 0.8688 0.1464
vt 0.0000 0.3536
vt 0.0000 0.1464
vt 0.4287 0.0000
vt 0.6063 0.3536
vt 0.1776 0.5000
vt 0.8688 0.5000
vt 0.1776 1.0000
vt 0.0000 0.8536
vt 0.0000 0.6464
vt 0.4287 0.5000
vt 0.6063 0.8536
vn 0.3827 0.9239 0.0000
vn 0.9239 0.3827 0.0000
vn 0.9239 -0.3827 0.0000
vn 0.3827 -0.9239 0.0000
vn -0.3827 -0.9239 0.0000
vn -0.9239 -0.3827 0.0000
vn 0.0000 0.0000 1.0000
vn -0.9239 0.3827 0.0000
vn -0.3827 0.9239 0.0000
vn 0.0000 -0.0000 -1.0000
s off
f 2/1/1 3/2/1 1/3/1
f 4/4/2 5/5/2 3/2/2
f 6/6/3 7/7/3 5/8/3
f 7/7/4 10/9/4 9/10/4
f 10/9/5 11/11/5 9/12/5
f 12/13/6 13/14/6 11/11/6
f 14/15/7 10/16/7 2/17/7
f 14/18/8 15/19/8 13/14/8
f 16/20/9 1/3/9 15/19/9
f 7/21/10 11/22/10 15/23/10
f 2/1/1 4/4/1 3/2/1
f 4/4/2 6/24/2 5/5/2
f 6/6/3 8/25/3 7/7/3
f 7/7/4 8/25/4 10/9/4
f 10/9/5 12/13/5 11/11/5
f 12/13/6 14/18/6 13/14/6
f 6/26/7 4/27/7 2/17/7
f 2/17/7 16/28/7 14/15/7
f 14/15/7 12/29/7 10/16/7
f 10/16/7 8/30/7 6/26/7
f 6/26/7 2/17/7 10/16/7
f 14/18/8 16/31/8 15/19/8
f 16/20/9 2/1/9 1/3/9
f 15/23/10 1/32/10 7/21/10
f 3/33/10 5/34/10 7/21/10
f 7/21/10 9/35/10 11/22/10
f 11/22/10 13/36/10 15/23/10
f 1/32/10 3/33/10 7/21/10
