# Blender v2.77 (sub 0) OBJ File: 'player.blend'
# www.blender.org
o Cube.001
v 0.500000 0.500000 -0.500000
v 0.500000 0.500000 0.500000
v -0.500000 0.500000 0.500000
v -0.500000 0.500000 -0.500000
v 0.500000 1.500000 -0.500000
v 0.500000 1.500000 0.500000
v -0.500000 1.500000 0.500000
v -0.500000 1.500000 -0.500000
v 1.000000 -1.000000 -1.000000
v 1.000000 -1.000000 1.000000
v -1.000000 -1.000000 1.000000
v -1.000000 -1.000000 -1.000000
v 1.000000 1.000000 -0.999999
v 0.999999 1.000000 1.000001
v -1.000000 1.000000 1.000000
v -1.000000 1.000000 -1.000000
vt 0.8796 0.7630
vt 0.7129 0.9297
vt 0.7129 0.7630
vt 0.9076 0.9596
vt 0.7409 0.7930
vt 0.9076 0.7930
vt 0.7090 0.9564
vt 0.8757 0.7897
vt 0.8757 0.9564
vt 0.7415 0.9076
vt 0.9082 0.7409
vt 0.9082 0.9076
vt 0.9023 0.9316
vt 0.7357 0.7650
vt 0.9023 0.7650
vt 0.9193 0.7585
vt 0.7526 0.9251
vt 0.7526 0.7585
vt 0.4147 0.5767
vt 0.0743 0.2506
vt 0.4076 0.2435
vt 0.6223 0.9576
vt 0.3335 0.6687
vt 0.6223 0.6687
vt 0.4004 -0.0898
vt 0.7408 0.2364
vt 0.8997 0.6855
vt 0.5664 0.3522
vt 0.8997 0.3522
vt 0.9010 0.3496
vt 0.5677 0.6829
vt 0.5677 0.3496
vt 0.0820 0.3509
vt 0.4154 0.6842
vt 0.0820 0.6842
vt 0.8796 0.9297
vt 0.7409 0.9596
vt 0.7090 0.7897
vt 0.7415 0.7409
vt 0.7357 0.9316
vt 0.9193 0.9251
vt 0.0814 0.5839
vt 0.3335 0.9576
vt 0.7337 -0.0969
vt 0.5664 0.6855
vt 0.9010 0.6829
vt 0.4154 0.3509
vn 0.0000 -1.0000 0.0000
vn 0.0000 1.0000 -0.0000
vn 1.0000 -0.0000 0.0000
vn 0.0000 -0.0000 1.0000
vn -1.0000 -0.0000 -0.0000
vn 0.0000 0.0000 -1.0000
s off
f 2/1/1 4/2/1 1/3/1
f 8/4/2 6/5/2 5/6/2
f 5/7/3 2/8/3 1/9/3
f 6/10/4 3/11/4 2/12/4
f 3/13/5 8/14/5 4/15/5
f 1/16/6 8/17/6 5/18/6
f 10/19/1 12/20/1 9/21/1
f 16/22/2 14/23/2 13/24/2
f 13/25/3 10/26/3 9/21/3
f 14/27/4 11/28/4 10/29/4
f 11/30/5 16/31/5 12/32/5
f 9/33/6 16/34/6 13/35/6
f 2/1/1 3/36/1 4/2/1
f 8/4/2 7/37/2 6/5/2
f 5/7/3 6/38/3 2/8/3
f 6/10/4 7/39/4 3/11/4
f 3/13/5 7/40/5 8/14/5
f 1/16/6 4/41/6 8/17/6
f 10/19/1 11/42/1 12/20/1
f 16/22/2 15/43/2 14/23/2
f 13/25/3 14/44/3 10/26/3
f 14/27/4 15/45/4 11/28/4
f 11/30/5 15/46/5 16/31/5
f 9/33/6 12/47/6 16/34/6
