# Blender v2.77 (sub 0) OBJ File: ''
# www.blender.org
o Cube.009_Cube.010
v -0.080969 -1.685357 -0.102646
v -0.080969 -1.175868 -0.102646
v -0.080969 -1.685357 -0.000748
v -0.080969 -1.175868 -0.000748
v -0.808811 -1.532510 -0.051697
v -0.808811 -1.328715 -0.051697
v 0.052468 -1.685357 -0.000748
v 0.052468 -1.175868 -0.000748
v 0.052468 -1.685357 -0.102646
v 0.052468 -1.175868 -0.102646
v 0.780309 -1.532510 -0.051697
v 0.780309 -1.328715 -0.051697
v 0.012737 -1.583459 0.035418
v 0.012737 -1.277766 0.035418
v 0.047805 -1.583459 -0.014664
v 0.047805 -1.277766 -0.014664
v 0.387999 -1.507036 0.260861
v 0.387999 -1.354189 0.260861
v -0.023914 -1.583459 -0.103461
v -0.023914 -1.277766 -0.103461
v 0.019317 -1.583459 -0.060229
v 0.019317 -1.277766 -0.060229
v -0.311096 -1.491751 0.226952
v -0.311096 -1.369474 0.226952
v -0.041181 -1.583459 -0.124481
v -0.041181 -1.277766 -0.124481
v 0.019958 -1.583459 -0.124481
v 0.019958 -1.277766 -0.124481
v -0.010612 -1.507036 0.312224
v -0.010612 -1.354189 0.312224
v -0.041865 -0.185938 -0.126606
v -0.041865 0.124713 -0.126606
v 0.020265 -0.185938 -0.126605
v 0.020265 0.124713 -0.126605
v -0.010800 -0.108275 0.317182
v -0.010800 0.047050 0.317182
v -0.024319 -0.185938 -0.105244
v -0.024319 0.124713 -0.105244
v 0.019614 -0.185938 -0.061312
v 0.019614 0.124713 -0.061312
v -0.316158 -0.092743 0.230527
v -0.316158 0.031518 0.230527
v 0.012927 -0.185938 0.035886
v 0.012927 0.124713 0.035886
v 0.048564 -0.185938 -0.015008
v 0.048564 0.124713 -0.015008
v 0.394274 -0.108275 0.264985
v 0.394274 0.047050 0.264985
v 0.053302 -0.289488 -0.000866
v 0.053302 0.228263 -0.000866
v 0.053302 -0.289488 -0.104416
v 0.053302 0.228263 -0.104416
v 0.792947 -0.134163 -0.052641
v 0.792947 0.072938 -0.052641
v -0.082299 -0.289488 -0.104416
v -0.082299 0.228263 -0.104416
v -0.082299 -0.289488 -0.000866
v -0.082299 0.228263 -0.000866
v -0.821944 -0.134163 -0.052641
v -0.821944 0.072938 -0.052641
v -0.081989 1.211475 -0.104003
v -0.081989 1.727300 -0.104003
v -0.081989 1.211475 -0.000838
v -0.081989 1.727300 -0.000838
v -0.818882 1.366223 -0.052421
v -0.818882 1.572553 -0.052421
v 0.053108 1.211475 -0.000838
v 0.053108 1.727300 -0.000838
v 0.053108 1.211475 -0.104003
v 0.053108 1.727300 -0.104003
v 0.790000 1.366223 -0.052421
v 0.790000 1.572553 -0.052421
v 0.012883 1.314640 0.035777
v 0.012883 1.624135 0.035777
v 0.048387 1.314640 -0.014927
v 0.048387 1.624135 -0.014927
v 0.392811 1.392014 0.264023
v 0.392811 1.546761 0.264023
v -0.024224 1.314640 -0.104828
v -0.024224 1.624135 -0.104828
v 0.019545 1.314640 -0.061059
v 0.019545 1.624135 -0.061059
v -0.314977 1.407489 0.229693
v -0.314977 1.531287 0.229693
v -0.041706 1.314640 -0.126110
v -0.041706 1.624135 -0.126110
v 0.020193 1.314640 -0.126110
v 0.020193 1.624135 -0.126110
v -0.010756 1.392014 0.316025
v -0.010756 1.546761 0.316025
v -0.131633 -2.030612 0.026531
v -0.131633 -2.030612 -0.173469
v 0.108367 -2.030612 -0.173469
v 0.108367 -2.030612 0.026531
v -0.131633 1.969388 0.226530
v -0.131633 1.969388 -0.373470
v 0.108367 1.969388 -0.373469
v 0.108367 1.969388 0.226531
vt 0.6777 0.8003
vt 0.5249 0.7789
vt 0.6777 0.7789
vt 0.3939 0.7135
vt 0.4711 0.8237
vt 0.3608 0.8237
vt 0.2318 0.8692
vt 0.1599 0.7666
vt 0.2010 0.7666
vt 0.6480 0.7578
vt 0.6458 0.7789
vt 0.4944 0.7578
vt 0.3416 0.7417
vt 0.4944 0.7363
vt 0.4944 0.7575
vt 0.4944 0.7789
vt 0.3416 0.7575
vt 0.4944 0.7575
vt 0.1600 0.8692
vt 0.2318 0.9718
vt 0.1291 0.9718
vt 0.5813 0.8237
vt 0.5041 0.7135
vt 0.5482 0.7135
vt 0.0688 0.7291
vt 0.0666 0.7080
vt 0.2202 0.7080
vt 0.7695 0.8875
vt 0.9231 0.8875
vt 0.9209 0.9086
vt 0.9523 0.9411
vt 0.8606 0.9308
vt 0.9523 0.9308
vt 0.4102 0.8718
vt 0.3416 0.8003
vt 0.4333 0.8003
vt 0.1583 0.7930
vt 0.2268 0.8718
vt 0.1810 0.8718
vt 0.8617 0.9666
vt 0.8606 0.9539
vt 0.9539 0.9539
vt 0.8606 0.9411
vt 0.9539 0.9411
vt 0.9528 0.9539
vt 0.2480 0.7582
vt 0.3396 0.7673
vt 0.2480 0.7673
vt 0.7422 0.8718
vt 0.6777 0.8024
vt 0.7694 0.8024
vt 0.5745 0.9560
vt 0.6232 0.9097
vt 0.6232 0.9361
vt 0.8319 0.7255
vt 0.8312 0.7127
vt 0.9249 0.7127
vt 0.3408 0.7235
vt 0.2480 0.7363
vt 0.2469 0.7235
vt 0.8610 0.8589
vt 0.9527 0.8718
vt 0.8610 0.8718
vt 0.3608 0.8899
vt 0.4104 0.8237
vt 0.4270 0.8899
vt 0.3608 0.8899
vt 0.4104 0.9561
vt 0.3774 0.9561
vt 0.8632 0.8746
vt 0.8632 0.8875
vt 0.7695 0.8811
vt 0.8305 0.7767
vt 0.9244 0.7767
vt 0.9235 0.7895
vt 0.8610 0.8461
vt 0.9527 0.8589
vt 0.8610 0.8589
vt 0.5758 0.8237
vt 0.6254 0.8899
vt 0.5593 0.8899
vt 0.4931 0.8237
vt 0.5427 0.8899
vt 0.5097 0.8899
vt 0.3416 0.7447
vt 0.3416 0.7575
vt 0.2479 0.7511
vt 0.2480 0.7865
vt 0.3416 0.7801
vt 0.3416 0.7930
vt 0.9527 0.8127
vt 0.8611 0.8036
vt 0.9527 0.8036
vt 0.4270 0.9363
vt 0.4770 0.8899
vt 0.4770 0.9560
vt 0.4770 0.9560
vt 0.5257 0.9097
vt 0.5257 0.9361
vt 0.3405 0.7107
vt 0.3405 0.7235
vt 0.2469 0.7187
vt 0.8305 0.7468
vt 0.9242 0.7468
vt 0.9236 0.7596
vt 0.8610 0.8230
vt 0.9527 0.8332
vt 0.8610 0.8332
vt 0.5018 0.8718
vt 0.4333 0.8003
vt 0.5249 0.8003
vt 0.2500 0.7930
vt 0.3185 0.8718
vt 0.2726 0.8718
vt 0.8323 0.7127
vt 0.8312 0.7000
vt 0.9245 0.7000
vt 0.3408 0.7103
vt 0.4338 0.7023
vt 0.4338 0.7151
vt 0.8305 0.7810
vt 0.6777 0.7596
vt 0.8305 0.7596
vt 0.0573 0.8692
vt 0.1291 0.9718
vt 0.0264 0.9718
vt 0.3345 0.9718
vt 0.2626 0.8692
vt 0.3037 0.8692
vt 0.0688 0.7503
vt 0.0666 0.7291
vt 0.2202 0.7291
vt 0.3408 0.7151
vt 0.4944 0.7151
vt 0.4922 0.7363
vt 0.8305 0.8024
vt 0.6777 0.7810
vt 0.8305 0.7810
vt 0.2318 0.7666
vt 0.3038 0.6640
vt 0.3345 0.7666
vt 0.1291 0.7666
vt 0.0572 0.6640
vt 0.0983 0.6640
vt 0.2194 0.7503
vt 0.2194 0.7716
vt 0.0666 0.7661
vt 0.6777 0.7438
vt 0.8305 0.7383
vt 0.8305 0.7596
vt 0.4944 0.8003
vt 0.3416 0.7789
vt 0.4944 0.7789
vt 0.2627 0.7666
vt 0.3345 0.8692
vt 0.2318 0.8692
vt 0.1291 0.8692
vt 0.0572 0.7666
vt 0.0983 0.7666
vt 0.9223 0.9086
vt 0.9223 0.9299
vt 0.7695 0.9244
vt 0.4944 0.7420
vt 0.6472 0.7365
vt 0.6472 0.7578
vt 0.0666 0.7716
vt 0.2194 0.7930
vt 0.0666 0.7930
vt 0.1600 0.6640
vt 0.2318 0.7666
vt 0.1291 0.7666
vt 0.6916 0.8237
vt 0.6143 0.7135
vt 0.6584 0.7135
vt 0.6799 0.7383
vt 0.6777 0.7172
vt 0.8312 0.7172
vt 0.4944 0.7153
vt 0.6479 0.7153
vt 0.6457 0.7365
vt 0.9527 0.8230
vt 0.8610 0.8127
vt 0.9527 0.8127
vt 0.5935 0.8718
vt 0.5249 0.8003
vt 0.6166 0.8003
vt 0.0666 0.7930
vt 0.1351 0.8718
vt 0.0893 0.8718
vt 0.7708 0.7044
vt 0.7701 0.7172
vt 0.6777 0.7044
vt 0.4944 0.7026
vt 0.5877 0.7026
vt 0.5866 0.7153
vt 0.2469 0.7016
vt 0.3386 0.7107
vt 0.2469 0.7107
vt 0.8610 0.8024
vt 0.7972 0.8718
vt 0.7694 0.8024
vt 0.5257 0.9560
vt 0.5745 0.9097
vt 0.5745 0.9361
vt 0.9248 0.7255
vt 0.9248 0.7383
vt 0.8312 0.7335
vt 0.8305 0.7687
vt 0.9240 0.7639
vt 0.9240 0.7767
vt 0.8610 0.8332
vt 0.9527 0.8461
vt 0.8610 0.8461
vt 0.4435 0.8237
vt 0.4931 0.8899
vt 0.4270 0.8899
vt 0.6254 0.8237
vt 0.6750 0.8899
vt 0.6419 0.8899
vt 0.3416 0.7673
vt 0.3416 0.7801
vt 0.2480 0.7737
vt 0.8305 0.7960
vt 0.9241 0.7895
vt 0.9241 0.8024
vt 0.7519 0.3805
vt 0.7152 0.4108
vt 0.7152 0.3805
vt 0.7375 0.1955
vt 0.6465 0.2322
vt 0.6465 0.1955
vt 0.2319 0.2120
vt 0.7682 0.1744
vt 0.7682 0.1932
vt 0.7682 0.2909
vt 0.2318 0.3134
vt 0.2318 0.2909
vt 0.2319 0.2683
vt 0.7682 0.2308
vt 0.7682 0.2496
vt 0.7682 0.2909
vt 0.2318 0.2683
vt 0.7682 0.2683
vt 0.5249 0.8003
vt 0.4380 0.7135
vt 0.1291 0.8692
vt 0.3416 0.7789
vt 0.2011 0.8692
vt 0.4711 0.8237
vt 0.8606 0.9411
vt 0.3643 0.8718
vt 0.2500 0.7930
vt 0.3396 0.7582
vt 0.7055 0.8718
vt 0.5745 0.8899
vt 0.9527 0.8589
vt 0.3774 0.8237
vt 0.4270 0.8899
vt 0.9527 0.8461
vt 0.6089 0.8237
vt 0.5593 0.8237
vt 0.8610 0.8127
vt 0.4270 0.9099
vt 0.4770 0.8899
vt 0.9527 0.8230
vt 0.4560 0.8718
vt 0.3416 0.7930
vt 0.6777 0.7810
vt 0.0984 0.8692
vt 0.2318 0.9718
vt 0.6777 0.8024
vt 0.2627 0.6640
vt 0.0264 0.7666
vt 0.3416 0.8003
vt 0.3038 0.7666
vt 0.0264 0.8692
vt 0.2194 0.7716
vt 0.2011 0.6640
vt 0.5813 0.8237
vt 0.8610 0.8230
vt 0.5476 0.8718
vt 0.1583 0.7930
vt 0.3386 0.7016
vt 0.8338 0.8718
vt 0.5257 0.8899
vt 0.9527 0.8332
vt 0.4766 0.8237
vt 0.6916 0.8237
vt 0.7519 0.4108
vt 0.7375 0.2322
vt 0.2319 0.1557
vt 0.7682 0.3134
vt 0.2319 0.2120
vt 0.2318 0.2909
vn 1.0000 0.0000 -0.0000
vn -0.0698 0.0000 0.9976
vn -0.0698 0.0000 -0.9976
vn -0.2055 -0.9787 -0.0000
vn -0.2055 0.9787 0.0000
vn -1.0000 0.0000 0.0000
vn 0.0698 0.0000 -0.9976
vn 0.0698 0.0000 0.9976
vn 0.2055 -0.9787 0.0000
vn 0.2055 0.9787 -0.0000
vn -0.8192 0.0000 -0.5736
vn 0.6294 0.0000 -0.7771
vn -0.5150 0.0000 0.8572
vn 0.1412 -0.9850 0.0989
vn 0.1412 0.9850 0.0989
vn 0.7071 0.0000 -0.7071
vn 0.6560 0.0000 0.7548
vn -0.7548 0.0000 -0.6560
vn -0.1453 -0.9787 0.1453
vn -0.1453 0.9787 0.1453
vn 0.0000 0.0000 -1.0000
vn 0.9976 0.0000 0.0698
vn -0.9976 0.0000 0.0698
vn -0.0000 -0.9850 0.1724
vn -0.0000 0.9850 0.1724
vn 0.0000 -1.0000 0.0000
vn 0.0000 1.0000 0.0000
vn 0.0000 -0.0499 -0.9988
vn -0.0000 -0.0499 0.9988
s off
f 4/1/1 1/2/1 2/3/1
f 6/4/2 3/5/2 4/6/2
f 2/7/3 5/8/3 6/9/3
f 1/10/4 3/11/4 5/12/4
f 6/13/5 4/14/5 2/15/5
f 10/16/6 7/17/6 8/18/6
f 12/19/7 9/20/7 10/21/7
f 8/22/8 11/23/8 12/24/8
f 7/25/9 9/26/9 11/27/9
f 12/28/10 10/29/10 8/30/10
f 16/31/11 13/32/11 14/33/11
f 18/34/12 15/35/12 16/36/12
f 14/37/13 17/38/13 18/39/13
f 13/40/14 15/41/14 17/42/14
f 18/43/15 16/44/15 14/45/15
f 22/46/16 19/47/16 20/48/16
f 24/49/17 21/50/17 22/51/17
f 20/52/18 23/53/18 24/54/18
f 19/55/19 21/56/19 23/57/19
f 24/58/20 22/59/20 20/60/20
f 28/61/21 25/62/21 26/63/21
f 28/64/22 29/65/22 27/66/22
f 26/67/23 29/68/23 30/69/23
f 25/70/24 27/71/24 29/72/24
f 30/73/25 28/74/25 26/75/25
f 34/76/21 31/77/21 32/78/21
f 36/79/22 33/80/22 34/81/22
f 32/82/23 35/83/23 36/84/23
f 31/85/24 33/86/24 35/87/24
f 36/88/25 34/89/25 32/90/25
f 40/91/16 37/92/16 38/93/16
f 42/94/17 39/95/17 40/96/17
f 38/97/18 41/98/18 42/99/18
f 37/100/19 39/101/19 41/102/19
f 42/103/20 40/104/20 38/105/20
f 46/106/11 43/107/11 44/108/11
f 48/109/12 45/110/12 46/111/12
f 44/112/13 47/113/13 48/114/13
f 43/115/14 45/116/14 47/117/14
f 48/118/15 46/119/15 44/120/15
f 52/121/6 49/122/6 50/123/6
f 54/124/7 51/125/7 52/126/7
f 50/127/8 53/128/8 54/129/8
f 49/130/9 51/131/9 53/132/9
f 54/133/10 52/134/10 50/135/10
f 58/136/1 55/137/1 56/138/1
f 58/139/2 59/140/2 57/141/2
f 56/142/3 59/143/3 60/144/3
f 55/145/4 57/146/4 59/147/4
f 60/148/5 58/149/5 56/150/5
f 64/151/1 61/152/1 62/153/1
f 66/154/2 63/155/2 64/156/2
f 62/157/3 65/158/3 66/159/3
f 61/160/4 63/161/4 65/162/4
f 66/163/5 64/164/5 62/165/5
f 70/166/6 67/167/6 68/168/6
f 72/169/7 69/170/7 70/171/7
f 68/172/8 71/173/8 72/174/8
f 67/175/9 69/176/9 71/177/9
f 72/178/10 70/179/10 68/180/10
f 76/181/11 73/182/11 74/183/11
f 78/184/12 75/185/12 76/186/12
f 74/187/13 77/188/13 78/189/13
f 73/190/14 75/191/14 77/192/14
f 78/193/15 76/194/15 74/195/15
f 82/196/16 79/197/16 80/198/16
f 82/199/17 83/200/17 81/201/17
f 80/202/18 83/203/18 84/204/18
f 79/205/19 81/206/19 83/207/19
f 84/208/20 82/209/20 80/210/20
f 88/211/21 85/212/21 86/213/21
f 90/214/22 87/215/22 88/216/22
f 86/217/23 89/218/23 90/219/23
f 85/220/24 87/221/24 89/222/24
f 90/223/25 88/224/25 86/225/25
f 91/226/26 93/227/26 94/228/26
f 95/229/27 97/230/27 96/231/27
f 95/232/6 92/233/6 91/234/6
f 96/235/28 93/236/28 92/237/28
f 97/238/1 94/239/1 93/240/1
f 95/241/29 94/242/29 98/243/29
f 4/1/1 3/244/1 1/2/1
f 6/4/2 5/245/2 3/5/2
f 2/7/3 1/246/3 5/8/3
f 10/16/6 9/247/6 7/17/6
f 12/19/7 11/248/7 9/20/7
f 8/22/8 7/249/8 11/23/8
f 16/31/11 15/250/11 13/32/11
f 18/34/12 17/251/12 15/35/12
f 14/37/13 13/252/13 17/38/13
f 22/46/16 21/253/16 19/47/16
f 24/49/17 23/254/17 21/50/17
f 20/52/18 19/255/18 23/53/18
f 28/61/21 27/256/21 25/62/21
f 28/64/22 30/257/22 29/65/22
f 26/67/23 25/258/23 29/68/23
f 34/76/21 33/259/21 31/77/21
f 36/79/22 35/260/22 33/80/22
f 32/82/23 31/261/23 35/83/23
f 40/91/16 39/262/16 37/92/16
f 42/94/17 41/263/17 39/95/17
f 38/97/18 37/264/18 41/98/18
f 46/106/11 45/265/11 43/107/11
f 48/109/12 47/266/12 45/110/12
f 44/112/13 43/267/13 47/113/13
f 52/121/6 51/268/6 49/122/6
f 54/124/7 53/269/7 51/125/7
f 50/127/8 49/270/8 53/128/8
f 58/136/1 57/271/1 55/137/1
f 58/139/2 60/272/2 59/140/2
f 56/142/3 55/273/3 59/143/3
f 64/151/1 63/274/1 61/152/1
f 66/154/2 65/275/2 63/155/2
f 62/157/3 61/276/3 65/158/3
f 70/166/6 69/277/6 67/167/6
f 72/169/7 71/278/7 69/170/7
f 68/172/8 67/279/8 71/173/8
f 76/181/11 75/280/11 73/182/11
f 78/184/12 77/281/12 75/185/12
f 74/187/13 73/282/13 77/188/13
f 82/196/16 81/283/16 79/197/16
f 82/199/17 84/284/17 83/200/17
f 80/202/18 79/285/18 83/203/18
f 88/211/21 87/286/21 85/212/21
f 90/214/22 89/287/22 87/215/22
f 86/217/23 85/288/23 89/218/23
f 91/226/26 92/289/26 93/227/26
f 95/229/27 98/290/27 97/230/27
f 95/232/6 96/291/6 92/233/6
f 96/235/28 97/292/28 93/236/28
f 97/238/1 98/293/1 94/239/1
f 95/241/29 91/294/29 94/242/29
